<svg width="29" height="25" viewBox="0 0 29 25" fill="none" xmlns="http://www.w3.org/2000/svg">
<g clip-path="url(#clip0_317_356)">
<path d="M3.125 1.5625C1.40137 1.5625 0 2.96387 0 4.6875V20.3125C0 22.0361 1.40137 23.4375 3.125 23.4375H25C26.7236 23.4375 28.125 22.0361 28.125 20.3125V4.6875C28.125 2.96387 26.7236 1.5625 25 1.5625H3.125ZM7.03125 14.0625H10.1562C12.3145 14.0625 14.0625 15.8105 14.0625 17.9688C14.0625 18.3984 13.7109 18.75 13.2812 18.75H3.90625C3.47656 18.75 3.125 18.3984 3.125 17.9688C3.125 15.8105 4.87305 14.0625 7.03125 14.0625ZM5.46875 9.375C5.46875 8.5462 5.79799 7.75134 6.38404 7.16529C6.97009 6.57924 7.76495 6.25 8.59375 6.25C9.42255 6.25 10.2174 6.57924 10.8035 7.16529C11.3895 7.75134 11.7188 8.5462 11.7188 9.375C11.7188 10.2038 11.3895 10.9987 10.8035 11.5847C10.2174 12.1708 9.42255 12.5 8.59375 12.5C7.76495 12.5 6.97009 12.1708 6.38404 11.5847C5.79799 10.9987 5.46875 10.2038 5.46875 9.375ZM17.9688 7.8125H24.2188C24.6484 7.8125 25 8.16406 25 8.59375C25 9.02344 24.6484 9.375 24.2188 9.375H17.9688C17.5391 9.375 17.1875 9.02344 17.1875 8.59375C17.1875 8.16406 17.5391 7.8125 17.9688 7.8125ZM17.9688 10.9375H24.2188C24.6484 10.9375 25 11.2891 25 11.7188C25 12.1484 24.6484 12.5 24.2188 12.5H17.9688C17.5391 12.5 17.1875 12.1484 17.1875 11.7188C17.1875 11.2891 17.5391 10.9375 17.9688 10.9375ZM17.9688 14.0625H24.2188C24.6484 14.0625 25 14.4141 25 14.8438C25 15.2734 24.6484 15.625 24.2188 15.625H17.9688C17.5391 15.625 17.1875 15.2734 17.1875 14.8438C17.1875 14.4141 17.5391 14.0625 17.9688 14.0625Z" fill="white"/>
</g>
<defs>
<clipPath id="clip0_317_356">
<rect width="28.125" height="25" fill="white"/>
</clipPath>
</defs>
</svg>
