<svg width="25" height="25" viewBox="0 0 25 25" fill="none" xmlns="http://www.w3.org/2000/svg">
<path d="M10.6396 5.1709L16.6357 11.167C16.9873 11.5186 17.1875 12.002 17.1875 12.5C17.1875 12.998 16.9873 13.4814 16.6357 13.833L10.6396 19.8291C10.3271 20.1416 9.90723 20.3125 9.46777 20.3125C8.55469 20.3125 7.8125 19.5703 7.8125 18.6572V15.625H1.5625C0.698242 15.625 0 14.9268 0 14.0625V10.9375C0 10.0732 0.698242 9.375 1.5625 9.375H7.8125V6.34277C7.8125 5.42969 8.55469 4.6875 9.46777 4.6875C9.90723 4.6875 10.3271 4.86328 10.6396 5.1709ZM17.1875 20.3125H20.3125C21.1768 20.3125 21.875 19.6143 21.875 18.75V6.25C21.875 5.38574 21.1768 4.6875 20.3125 4.6875H17.1875C16.3232 4.6875 15.625 3.98926 15.625 3.125C15.625 2.26074 16.3232 1.5625 17.1875 1.5625H20.3125C22.9004 1.5625 25 3.66211 25 6.25V18.75C25 21.3379 22.9004 23.4375 20.3125 23.4375H17.1875C16.3232 23.4375 15.625 22.7393 15.625 21.875C15.625 21.0107 16.3232 20.3125 17.1875 20.3125Z" fill="white"/>
</svg>
