<svg width="19" height="25" viewBox="0 0 19 25" fill="none" xmlns="http://www.w3.org/2000/svg">
<g clip-path="url(#clip0_317_343)">
<path d="M2.34375 0C1.0498 0 0 1.0498 0 2.34375V22.6562C0 23.9502 1.0498 25 2.34375 25H7.03125V21.0938C7.03125 19.7998 8.08105 18.75 9.375 18.75C10.6689 18.75 11.7188 19.7998 11.7188 21.0938V25H16.4062C17.7002 25 18.75 23.9502 18.75 22.6562V2.34375C18.75 1.0498 17.7002 0 16.4062 0H2.34375ZM3.125 11.7188C3.125 11.2891 3.47656 10.9375 3.90625 10.9375H5.46875C5.89844 10.9375 6.25 11.2891 6.25 11.7188V13.2812C6.25 13.7109 5.89844 14.0625 5.46875 14.0625H3.90625C3.47656 14.0625 3.125 13.7109 3.125 13.2812V11.7188ZM8.59375 10.9375H10.1562C10.5859 10.9375 10.9375 11.2891 10.9375 11.7188V13.2812C10.9375 13.7109 10.5859 14.0625 10.1562 14.0625H8.59375C8.16406 14.0625 7.8125 13.7109 7.8125 13.2812V11.7188C7.8125 11.2891 8.16406 10.9375 8.59375 10.9375ZM12.5 11.7188C12.5 11.2891 12.8516 10.9375 13.2812 10.9375H14.8438C15.2734 10.9375 15.625 11.2891 15.625 11.7188V13.2812C15.625 13.7109 15.2734 14.0625 14.8438 14.0625H13.2812C12.8516 14.0625 12.5 13.7109 12.5 13.2812V11.7188ZM3.90625 4.6875H5.46875C5.89844 4.6875 6.25 5.03906 6.25 5.46875V7.03125C6.25 7.46094 5.89844 7.8125 5.46875 7.8125H3.90625C3.47656 7.8125 3.125 7.46094 3.125 7.03125V5.46875C3.125 5.03906 3.47656 4.6875 3.90625 4.6875ZM7.8125 5.46875C7.8125 5.03906 8.16406 4.6875 8.59375 4.6875H10.1562C10.5859 4.6875 10.9375 5.03906 10.9375 5.46875V7.03125C10.9375 7.46094 10.5859 7.8125 10.1562 7.8125H8.59375C8.16406 7.8125 7.8125 7.46094 7.8125 7.03125V5.46875ZM13.2812 4.6875H14.8438C15.2734 4.6875 15.625 5.03906 15.625 5.46875V7.03125C15.625 7.46094 15.2734 7.8125 14.8438 7.8125H13.2812C12.8516 7.8125 12.5 7.46094 12.5 7.03125V5.46875C12.5 5.03906 12.8516 4.6875 13.2812 4.6875Z" fill="white"/>
</g>
<defs>
<clipPath id="clip0_317_343">
<rect width="18.75" height="25" fill="white"/>
</clipPath>
</defs>
</svg>
