<svg width="25" height="25" viewBox="0 0 25 25" fill="none" xmlns="http://www.w3.org/2000/svg">
<g clip-path="url(#clip0_317_353)">
<path d="M20.0342 11.2793L20.586 10.7275L18.9307 9.07227L15.8985 6.04004L14.2432 4.38477L13.6915 4.93652L12.5879 6.04004L2.86139 15.7666C2.35357 16.2744 1.98248 16.9043 1.7774 17.5928L0.0488854 23.4717C-0.073185 23.8818 0.0391197 24.3262 0.346737 24.6289C0.654354 24.9316 1.09381 25.0439 1.50396 24.9268L7.37799 23.1982C8.06646 22.9932 8.69635 22.6221 9.20416 22.1143L18.9307 12.3877L20.0342 11.2793ZM7.81256 19.502L7.36822 20.6103C7.17291 20.7617 6.95318 20.874 6.71881 20.9473L2.90045 22.0703L4.02349 18.2568C4.09185 18.0176 4.20904 17.7978 4.36041 17.6074L5.46881 17.1631V18.7256C5.46881 19.1553 5.82037 19.5068 6.25006 19.5068H7.81256V19.502ZM17.71 0.913086L17.0069 1.62109L15.9034 2.72461L15.3467 3.27637L17.002 4.93164L20.0342 7.96387L21.6895 9.61914L22.2413 9.06738L23.3448 7.96387L24.0528 7.25586C25.2735 6.03516 25.2735 4.05762 24.0528 2.83691L22.1338 0.913086C20.9131 -0.307617 18.9356 -0.307617 17.7149 0.913086H17.71ZM15.3956 9.11621L8.36432 16.1475C8.06158 16.4502 7.56353 16.4502 7.2608 16.1475C6.95806 15.8447 6.95806 15.3467 7.2608 15.0439L14.2921 8.0127C14.5948 7.70996 15.0928 7.70996 15.3956 8.0127C15.6983 8.31543 15.6983 8.81348 15.3956 9.11621Z" fill="white"/>
</g>
<defs>
<clipPath id="clip0_317_353">
<rect width="25" height="25" fill="white"/>
</clipPath>
</defs>
</svg>
