<svg width="32" height="25" viewBox="0 0 32 25" fill="none" xmlns="http://www.w3.org/2000/svg">
<g clip-path="url(#clip0_317_349)">
<path d="M9.37506 4.6875C9.99666 4.6875 10.5928 4.44057 11.0323 4.00103C11.4719 3.56149 11.7188 2.96535 11.7188 2.34375C11.7188 1.72215 11.4719 1.12601 11.0323 0.686468C10.5928 0.24693 9.99666 0 9.37506 0C8.75346 0 8.15731 0.24693 7.71778 0.686468C7.27824 1.12601 7.03131 1.72215 7.03131 2.34375C7.03131 2.96535 7.27824 3.56149 7.71778 4.00103C8.15731 4.44057 8.75346 4.6875 9.37506 4.6875ZM8.98443 23.4375V17.1875H9.76568V23.4375C9.76568 24.3018 10.4639 25 11.3282 25C12.1924 25 12.8907 24.3018 12.8907 23.4375V9.375H15.6251H18.7501H19.5313C20.3956 9.375 21.0938 8.67676 21.0938 7.8125C21.0938 6.94824 20.3956 6.25 19.5313 6.25H18.7501V3.125H28.1251V12.5H18.7501V10.9375H15.6251V13.2812C15.6251 14.5752 16.6749 15.625 17.9688 15.625H28.9063C30.2003 15.625 31.2501 14.5752 31.2501 13.2812V2.34375C31.2501 1.0498 30.2003 0 28.9063 0H17.9688C16.6749 0 15.6251 1.0498 15.6251 2.34375V6.25H11.8702H8.6524C7.00689 6.25 5.48346 7.11426 4.63385 8.52539L1.78717 13.2617C1.34283 13.999 1.58209 14.9609 2.31939 15.4053C3.0567 15.8496 4.01861 15.6104 4.46295 14.873L5.85943 12.5439V23.4375C5.85943 24.3018 6.55767 25 7.42193 25C8.28619 25 8.98443 24.3018 8.98443 23.4375Z" fill="white"/>
</g>
<defs>
<clipPath id="clip0_317_349">
<rect width="31.25" height="25" fill="white"/>
</clipPath>
</defs>
</svg>
